<?xml version="1.0" encoding="UTF-8" standalone="no"?>
<svg
   xmlns:dc="http://purl.org/dc/elements/1.1/"
   xmlns:cc="http://creativecommons.org/ns#"
   xmlns:rdf="http://www.w3.org/1999/02/22-rdf-syntax-ns#"
   xmlns:svg="http://www.w3.org/2000/svg"
   xmlns="http://www.w3.org/2000/svg"
   xmlns:sodipodi="http://sodipodi.sourceforge.net/DTD/sodipodi-0.dtd"
   xmlns:inkscape="http://www.inkscape.org/namespaces/inkscape"
   viewBox="0 0 464 55.563"
   version="1.1"
   id="svg170"
   sodipodi:docname="codenation.svg"
   inkscape:version="0.92.4 (5da689c313, 2019-01-14)">
  <metadata
     id="metadata174">
    <rdf:RDF>
      <cc:Work
         rdf:about="">
        <dc:format>image/svg+xml</dc:format>
        <dc:type
           rdf:resource="http://purl.org/dc/dcmitype/StillImage" />
      </cc:Work>
    </rdf:RDF>
  </metadata>
  <sodipodi:namedview
     pagecolor="#ffffff"
     bordercolor="#666666"
     borderopacity="1"
     objecttolerance="10"
     gridtolerance="10"
     guidetolerance="10"
     inkscape:pageopacity="0"
     inkscape:pageshadow="2"
     inkscape:window-width="1366"
     inkscape:window-height="707"
     id="namedview172"
     showgrid="false"
     inkscape:zoom="2.5517241"
     inkscape:cx="232"
     inkscape:cy="27.7815"
     inkscape:window-x="0"
     inkscape:window-y="25"
     inkscape:window-maximized="1"
     inkscape:current-layer="g160" />
  <defs
     id="defs114">
    <style
       id="style112">.a{fill:#fff;}.b{fill:#7800ff;}</style>
  </defs>
  <g
     transform="translate(0 17.589)"
     id="g160">
    <path
       class="a"
       d="M54.208,19.324,60.89,30.757,54.208,42.19H40.993L34.312,30.757l6.682-11.433H54.208M58.514,11.9H36.688L25.7,30.757,36.688,49.614H58.514L69.5,30.757,58.514,11.9Z"
       transform="translate(12.459 -11.82)"
       id="path116"
       style="fill:#000000" />
    <path
       class="a"
       d="M32.072,42.338H15.145L8.612,30.757l6.533-11.433H32.072V11.9H10.988L0,30.757,10.988,49.614H32.072Z"
       transform="translate(0 -11.82)"
       id="path118"
       style="fill:#000000" />
    <path
       class="a"
       d="M59.3,19.324H76.078L82.76,30.757,76.078,42.338H59.3v7.276H80.384L91.223,30.757,80.384,11.9H59.3Z"
       transform="translate(28.749 -11.82)"
       id="path120"
       style="fill:#000000" />
    <rect
       class="a"
       width="18.857"
       height="7.424"
       transform="translate(127.841 15.225)"
       id="rect122"
       style="fill:#000000" />
    <rect
       class="a"
       width="28.657"
       height="7.424"
       transform="translate(127.841 0.08)"
       id="rect124"
       style="fill:#000000" />
    <rect
       class="a"
       width="28.657"
       height="7.424"
       transform="translate(127.841 30.518)"
       id="rect126"
       style="fill:#000000" />
    <rect
       class="a"
       width="37.862"
       height="7.424"
       transform="translate(135.274 0.112) rotate(90)"
       id="rect128"
       style="fill:#000000" />
    <rect
       class="a"
       width="35.487"
       height="7.424"
       transform="translate(244.844 0.08)"
       id="rect130"
       style="fill:#000000" />
    <path
       class="a"
       d="M234.208,19.324l6.682,11.433L234.208,42.19H220.993l-6.682-11.433,6.682-11.433h13.215m4.306-7.424H216.688L205.7,30.757l10.988,18.857h21.827L249.5,30.757,238.514,11.9Z"
       transform="translate(99.723 -11.82)"
       id="path132"
       style="fill:#000000" />
    <rect
       class="a"
       width="37.862"
       height="7.424"
       transform="translate(266.303 0.042) rotate(90)"
       id="rect134"
       style="fill:#000000" />
    <rect
       class="a"
       width="37.862"
       height="7.424"
       transform="translate(296.98 0.1) rotate(90)"
       id="rect136"
       style="fill:#000000" />
    <path
       class="a"
       d="M139.8,49.614,156.727,11.9l5.939,4.454-14.4,33.26Z"
       transform="translate(67.775 -11.82)"
       id="path138"
       style="fill:#000000" />
    <path
       class="a"
       d="M172.666,49.614,155.739,11.9,149.8,16.354l14.4,33.26Z"
       transform="translate(72.623 -11.82)"
       id="path140"
       style="fill:#000000" />
    <g
       transform="translate(166.694)"
       id="g148"
       style="fill:#000000">
      <rect
         class="a"
         width="37.862"
         height="7.424"
         transform="translate(7.424 0.02) rotate(90)"
         id="rect142"
         style="fill:#000000" />
      <rect
         class="a"
         width="37.862"
         height="7.424"
         transform="translate(33.576) rotate(90)"
         id="rect144"
         style="fill:#000000" />
      <path
         class="a"
         d="M138.335,49.614,112.5,15.167l7.127-3.267,25.687,34.447Z"
         transform="translate(-112.154 -11.82)"
         id="path146"
         style="fill:#000000" />
    </g>
    <g
       transform="translate(356.412 0.04)"
       id="g156"
       style="fill:#000000">
      <rect
         class="a"
         width="37.862"
         height="7.424"
         transform="translate(7.424 0.02) rotate(90)"
         id="rect150"
         style="fill:#000000" />
      <rect
         class="a"
         width="37.862"
         height="7.424"
         transform="translate(33.576) rotate(90)"
         id="rect152"
         style="fill:#000000" />
      <path
         class="a"
         d="M265.987,49.614,240.3,15.167l6.979-3.267,25.836,34.447Z"
         transform="translate(-239.914 -11.86)"
         id="path154"
         style="fill:#000000" />
    </g>
    <rect
       class="a"
       width="4.009"
       height="4.9"
       transform="translate(224.502 0.08)"
       id="rect158"
       style="fill:#000000" />
  </g>
  <g
     transform="translate(405.647)"
     id="g164">
    <path
       class="b"
       d="M295.917,35.338H283.3L273.2,17.669,283.3,0h32.517l-4.306,7.572H287.751l-5.939,10.1,5.939,10.1h12.472Z"
       transform="translate(-273.2)"
       id="path162" />
  </g>
  <g
     transform="translate(424.207)"
     id="g168">
    <path
       class="b"
       d="M316.732,0,285.7,55.383h8.76L325.493,0Z"
       transform="translate(-285.7)"
       id="path166" />
  </g>
</svg>
